HIERARCHY
ROOT Hips
{
	OFFSET 0.000000 0.000000 0.000000
	CHANNELS 6 Xposition Yposition Zposition Zrotation Xrotation Yrotation
	JOINT Spine
	{
		OFFSET 0.000000 -0.000000 0.073130
		CHANNELS 6 Xposition Yposition Zposition Zrotation Xrotation Yrotation
		JOINT Spine1
		{
			OFFSET 0.000000 -0.000000 0.165477
			CHANNELS 6 Xposition Yposition Zposition Zrotation Xrotation Yrotation
			JOINT Neck
			{
				OFFSET 0.000000 -0.000000 0.183314
				CHANNELS 6 Xposition Yposition Zposition Zrotation Xrotation Yrotation
				JOINT Head
				{
					OFFSET 0.000000 -0.017837 0.138233
					CHANNELS 6 Xposition Yposition Zposition Zrotation Xrotation Yrotation
					End Site
					{
						OFFSET 0.000000 -0.000000 0.178365
					}
				}
			}
			JOINT LeftShoulder
			{
				OFFSET 0.035599 0.003890 0.149571
				CHANNELS 6 Xposition Yposition Zposition Zrotation Xrotation Yrotation
				JOINT LeftArm
				{
					OFFSET 0.103175 0.000000 0.000000
					CHANNELS 6 Xposition Yposition Zposition Zrotation Xrotation Yrotation
					JOINT LeftForeArm
					{
						OFFSET 0.267562 0.000000 0.000000
						CHANNELS 6 Xposition Yposition Zposition Zrotation Xrotation Yrotation
						JOINT LeftHand
						{
							OFFSET 0.239300 0.000000 0.000000
							CHANNELS 6 Xposition Yposition Zposition Zrotation Xrotation Yrotation
							End Site
							{
								OFFSET 0.133774 0.000000 0.000000
							}
						}
					}
				}
			}
			JOINT RightShoulder
			{
				OFFSET -0.035671 0.003890 0.149571
				CHANNELS 6 Xposition Yposition Zposition Zrotation Xrotation Yrotation
				JOINT RightArm
				{
					OFFSET -0.103175 0.000000 0.000000
					CHANNELS 6 Xposition Yposition Zposition Zrotation Xrotation Yrotation
					JOINT RightForeArm
					{
						OFFSET -0.267562 0.000000 0.000000
						CHANNELS 6 Xposition Yposition Zposition Zrotation Xrotation Yrotation
						JOINT RightHand
						{
							OFFSET -0.239300 0.000000 0.000000
							CHANNELS 6 Xposition Yposition Zposition Zrotation Xrotation Yrotation
							End Site
							{
								OFFSET -0.133774 0.000000 0.000000
							}
						}
					}
				}
			}
		}
	}
	JOINT LeftUpLeg
	{
		OFFSET 0.089182 0.000000 0.000000
		CHANNELS 6 Xposition Yposition Zposition Zrotation Xrotation Yrotation
		JOINT LeftLeg
		{
			OFFSET 0.000000 0.000000 -0.464168
			CHANNELS 6 Xposition Yposition Zposition Zrotation Xrotation Yrotation
			JOINT LeftFoot
			{
				OFFSET 0.000000 0.000000 -0.372878
				CHANNELS 6 Xposition Yposition Zposition Zrotation Xrotation Yrotation
				JOINT LeftToeBase
				{
					OFFSET 0.000000 -0.133774 -0.057969
					CHANNELS 6 Xposition Yposition Zposition Zrotation Xrotation Yrotation
					End Site
					{
						OFFSET 0.000000 -0.035673 0.000000
					}
				}
			}
		}
	}
	JOINT RightUpLeg
	{
		OFFSET -0.089182 0.000000 0.000000
		CHANNELS 6 Xposition Yposition Zposition Zrotation Xrotation Yrotation
		JOINT RightLeg
		{
			OFFSET 0.000000 0.000000 -0.464168
			CHANNELS 6 Xposition Yposition Zposition Zrotation Xrotation Yrotation
			JOINT RightFoot
			{
				OFFSET 0.000000 0.000000 -0.372878
				CHANNELS 6 Xposition Yposition Zposition Zrotation Xrotation Yrotation
				JOINT RightToeBase
				{
					OFFSET 0.000000 -0.133774 -0.057969
					CHANNELS 6 Xposition Yposition Zposition Zrotation Xrotation Yrotation
					End Site
					{
						OFFSET 0.000000 -0.035673 0.000000
					}
				}
			}
		}
	}
}
MOTION
Frames: 5
Frame Time: 0.041667
0.001617 0.110615 0.738814 -2.361168 4.785630 -3.789042 -0.000000 -0.000000 0.073130 -4.786395 -9.661750 -4.799941 -0.000000 -0.000000 0.165477 -1.561208 6.815417 1.696161 -0.000000 -0.000000 0.183314 1.227227 8.062640 -17.999543 -0.000000 -0.017837 0.138233 2.806915 9.200125 8.709406 0.035599 0.003890 0.149571 -18.004660 3.169284 1.294078 0.103175 -0.000000 -0.000000 -67.539260 42.520246 53.644497 0.267562 0.000000 -0.000000 -54.419129 36.260597 -80.311946 0.239300 0.000000 0.000000 -10.739450 -10.890802 -34.304318 -0.035671 0.003890 0.149571 11.610119 -7.768239 2.694293 -0.103175 0.000000 0.000000 44.096961 16.299982 -32.214314 -0.267562 -0.000000 -0.000000 -105.103422 53.601077 62.758360 -0.239300 0.000000 0.000000 101.036994 94.970884 -169.438811 0.089182 0.000000 0.000000 -13.053597 -12.952124 -32.394467 -0.000000 0.000000 -0.464168 22.818497 40.493214 20.574756 -0.000000 0.000000 -0.372878 24.015748 -13.411744 9.339882 0.000000 -0.133774 -0.057969 -0.000000 -0.000001 0.000003 -0.089182 -0.000000 -0.000000 4.117526 -20.237268 40.205956 -0.000000 0.000000 -0.464168 5.069399 38.603334 -37.679985 -0.000000 0.000000 -0.372878 -34.842304 -21.597186 -7.233902 -0.000000 -0.133774 -0.057969 0.000001 0.000002 0.000001 
0.001521 0.110753 0.738683 -2.386237 4.791517 -3.876794 -0.000000 -0.000000 0.073130 -4.821741 -9.615399 -4.820174 0.000000 -0.000000 0.165477 -1.568522 6.809977 1.620909 0.000000 -0.000000 0.183314 1.226172 8.048854 -18.046111 -0.000000 -0.017837 0.138233 2.822433 9.226733 8.979846 0.035599 0.003890 0.149571 -17.980464 3.219582 1.288330 0.103175 -0.000000 -0.000000 -67.415927 42.356192 53.622015 0.267562 0.000000 0.000000 -54.496334 36.345318 -80.271511 0.239300 0.000000 0.000000 -10.720580 -10.846050 -34.341843 -0.035671 0.003890 0.149571 11.497859 -7.655696 2.578966 -0.103175 0.000000 0.000000 44.888345 16.836799 -32.760220 -0.267562 0.000000 -0.000000 -104.788714 55.196593 62.280547 -0.239300 -0.000000 -0.000000 102.739815 94.962668 -170.346776 0.089182 -0.000000 0.000000 -13.027247 -12.971784 -32.315944 0.000000 0.000000 -0.464168 22.797500 40.481923 20.595445 -0.000000 0.000000 -0.372878 24.040956 -13.379220 9.323623 0.000000 -0.133774 -0.057969 0.000002 0.000002 0.000001 -0.089182 -0.000000 -0.000000 4.185787 -20.302170 40.327602 -0.000000 0.000000 -0.464168 5.303308 38.612449 -37.844640 0.000000 0.000000 -0.372878 -34.970961 -21.628486 -7.272361 -0.000000 -0.133774 -0.057969 -0.000001 -0.000000 -0.000000 
0.001465 0.110959 0.738621 -2.423134 4.833221 -3.989010 0.000000 -0.000000 0.073130 -4.850152 -9.617483 -4.792693 0.000000 -0.000000 0.165477 -1.572292 6.827355 1.509402 -0.000000 -0.000000 0.183314 1.241985 8.053280 -18.059339 -0.000000 -0.017836 0.138233 2.851014 9.201830 9.190027 0.035599 0.003890 0.149572 -17.991871 3.221735 1.295540 0.103175 -0.000000 0.000000 -67.454880 42.274148 53.790677 0.267562 0.000000 -0.000000 -54.349738 36.344581 -80.490733 0.239300 -0.000000 0.000000 -10.763666 -10.880172 -34.321694 -0.035671 0.003890 0.149571 11.512245 -7.583356 2.456619 -0.103175 -0.000000 0.000000 45.411414 17.274834 -33.267809 -0.267562 -0.000000 0.000000 -104.384395 56.701625 61.938881 -0.239300 -0.000000 -0.000000 104.196899 94.955523 -170.830968 0.089182 0.000000 0.000000 -13.032950 -12.999148 -32.220352 0.000000 0.000000 -0.464168 22.923896 40.468782 20.549502 -0.000000 0.000000 -0.372878 24.024864 -13.334328 9.348650 -0.000000 -0.133774 -0.057969 -0.000000 0.000001 -0.000001 -0.089182 0.000000 -0.000000 4.274345 -20.397943 40.470397 -0.000000 0.000000 -0.464168 5.447638 38.643496 -37.944624 0.000000 0.000000 -0.372879 -35.034940 -21.655895 -7.268850 -0.000000 -0.133774 -0.057969 -0.000001 -0.000000 -0.000001 
0.001313 0.111183 0.738505 -2.466739 4.850995 -4.083453 0.000000 -0.000000 0.073130 -4.886778 -9.566003 -4.766911 -0.000000 -0.000000 0.165477 -1.578039 6.811827 1.379422 -0.000000 -0.000000 0.183314 1.258714 8.013207 -18.062355 0.000000 -0.017836 0.138233 2.879807 9.270401 9.389628 0.035599 0.003890 0.149571 -17.933319 3.271773 1.297971 0.103175 -0.000000 -0.000000 -67.413571 42.113536 53.820337 0.267562 -0.000000 -0.000000 -54.379798 36.401059 -80.519461 0.239300 0.000000 0.000000 -10.650552 -10.914514 -34.331860 -0.035671 0.003890 0.149572 11.426233 -7.476109 2.335646 -0.103175 0.000000 0.000000 45.996157 17.541287 -33.713585 -0.267562 -0.000000 -0.000000 -103.920714 58.174272 61.718894 -0.239300 0.000000 -0.000000 105.969675 94.888765 -171.552878 0.089182 0.000000 0.000000 -12.997846 -13.030398 -32.142682 0.000000 0.000000 -0.464168 23.016916 40.480673 20.501310 -0.000000 0.000000 -0.372878 23.984363 -13.272941 9.358563 -0.000000 -0.133774 -0.057969 -0.000003 -0.000000 0.000001 -0.089182 0.000000 0.000000 4.402179 -20.450440 40.619582 0.000000 0.000000 -0.464168 5.678219 38.625492 -38.171386 -0.000000 0.000000 -0.372878 -35.230853 -21.699735 -7.321918 -0.000000 -0.133774 -0.057969 -0.000003 0.000000 -0.000000 
0.001250 0.111394 0.738342 -2.512726 4.883296 -4.195205 -0.000000 -0.000000 0.073129 -4.916133 -9.548147 -4.735020 -0.000000 -0.000000 0.165477 -1.581774 6.828185 1.255971 0.000000 -0.000000 0.183314 1.279713 7.998336 -18.028006 -0.000000 -0.017837 0.138233 2.908274 9.276082 9.531793 0.035599 0.003890 0.149571 -17.942069 3.293054 1.323968 0.103175 -0.000000 0.000000 -67.548740 42.077790 54.046515 0.267562 -0.000000 0.000000 -54.107307 36.358641 -80.918522 0.239300 -0.000000 -0.000000 -10.566755 -11.073208 -34.241661 -0.035671 0.003890 0.149571 11.494874 -7.463694 2.181535 -0.103175 0.000000 0.000000 47.113248 18.648747 -34.566536 -0.267562 -0.000000 0.000000 -102.523359 59.801790 60.034665 -0.239300 -0.000000 0.000000 114.300156 95.097502 -178.729481 0.089182 0.000000 -0.000000 -13.017437 -13.034796 -32.062213 -0.000000 0.000000 -0.464168 23.173946 40.460043 20.503640 -0.000000 0.000000 -0.372878 24.028180 -13.244387 9.272191 -0.000000 -0.133774 -0.057969 0.000001 -0.000002 -0.000002 -0.089182 0.000000 -0.000000 4.504552 -20.547760 40.770974 0.000000 0.000000 -0.464168 5.860751 38.674447 -38.279911 0.000000 0.000000 -0.372878 -35.258546 -21.728563 -7.316437 -0.000000 -0.133774 -0.057969 0.000002 0.000000 -0.000002 
